<svg width="32" height="66" viewBox="0 0 32 66" fill="none" xmlns="http://www.w3.org/2000/svg">
<g clip-path="url(#clip0_7_604)">
<path fill-rule="evenodd" clip-rule="evenodd" d="M-9.61651e-07 44L-4.37114e-07 56C-1.95739e-07 61.522 4.478 66 10 66L22 66C27.522 66 32 61.522 32 56L32 44C32 38.478 27.522 34 22 34L10 34C4.478 34 -1.20302e-06 38.478 -9.61651e-07 44ZM22 37C25.86 37 29 40.14 29 44L29 56C29 59.86 25.86 63 22 63L10 63C6.14 63 3 59.86 3 56L3 44C3 40.14 6.14 37 10 37L22 37ZM8 50C8 54.418 11.582 58 16 58C20.418 58 24 54.418 24 50C24 45.582 20.418 42 16 42C11.582 42 8 45.582 8 50ZM21 50C21 52.756 18.756 55 16 55C13.242 55 11 52.756 11 50C11 47.244 13.242 45 16 45C18.756 45 21 47.244 21 50ZM7.40035 40.3366C7.98908 40.3366 8.46635 40.8139 8.46635 41.4026C8.46635 41.9913 7.98908 42.4686 7.40035 42.4686C6.81161 42.4686 6.33435 41.9913 6.33435 41.4026C6.33435 40.8139 6.81161 40.3366 7.40035 40.3366Z" fill="#0047BB"/>
</g>
<g clip-path="url(#clip1_7_604)">
<path fill-rule="evenodd" clip-rule="evenodd" d="M-9.61651e-07 10L-4.37114e-07 22C-1.95739e-07 27.522 4.478 32 10 32L22 32C27.522 32 32 27.522 32 22L32 10C32 4.478 27.522 -1.20302e-06 22 -9.61651e-07L10 -4.37114e-07C4.478 -1.9574e-07 -1.20302e-06 4.478 -9.61651e-07 10ZM22 3C25.86 3 29 6.14 29 10L29 22C29 25.86 25.86 29 22 29L10 29C6.14 29 3 25.86 3 22L3 10C3 6.14 6.14 3 10 3L22 3ZM8 16C8 20.418 11.582 24 16 24C20.418 24 24 20.418 24 16C24 11.582 20.418 8 16 8C11.582 8 8 11.582 8 16ZM21 16C21 18.756 18.756 21 16 21C13.242 21 11 18.756 11 16C11 13.244 13.242 11 16 11C18.756 11 21 13.244 21 16ZM7.40035 6.33661C7.98908 6.33661 8.46635 6.81388 8.46635 7.40261C8.46635 7.99135 7.98908 8.46861 7.40035 8.46861C6.81161 8.46861 6.33435 7.99135 6.33435 7.40261C6.33435 6.81388 6.81161 6.33661 7.40035 6.33661Z" fill="#DCDCDC"/>
</g>
<defs>
<clipPath id="clip0_7_604">
<rect width="32" height="32" fill="white" transform="translate(0 66) rotate(-90)"/>
</clipPath>
<clipPath id="clip1_7_604">
<rect width="32" height="32" fill="white" transform="translate(0 32) rotate(-90)"/>
</clipPath>
</defs>
</svg>
