<svg width="32" height="66" viewBox="0 0 32 66" fill="none" xmlns="http://www.w3.org/2000/svg">
<path d="M23.9771 40H7.02293C3.69655 40 1 42.6281 1 45.87V54.13C1 57.3719 3.69655 60 7.02293 60H23.9771C27.3034 60 30 57.3719 30 54.13V45.87C30 42.6281 27.3034 40 23.9771 40ZM19.9038 50.4019L11.9738 54.088C11.7625 54.1862 11.5184 54.036 11.5184 53.8079V46.2053C11.5184 45.974 11.7689 45.824 11.9807 45.9286L19.9107 49.8451C20.1464 49.9615 20.1423 50.291 19.9038 50.4019Z" fill="#0047BB"/>
<path d="M23.9771 6H7.02293C3.69655 6 1 8.62807 1 11.87V20.13C1 23.3719 3.69655 26 7.02293 26H23.9771C27.3034 26 30 23.3719 30 20.13V11.87C30 8.62807 27.3034 6 23.9771 6ZM19.9038 16.4019L11.9738 20.088C11.7625 20.1862 11.5184 20.036 11.5184 19.8079V12.2053C11.5184 11.974 11.7689 11.824 11.9807 11.9286L19.9107 15.8451C20.1464 15.9615 20.1423 16.291 19.9038 16.4019Z" fill="#DCDCDC"/>
</svg>
