<svg width="15" height="16" viewBox="0 0 15 16" fill="none" xmlns="http://www.w3.org/2000/svg">
<path d="M12.3536 4.35355C12.5488 4.15829 12.5488 3.84171 12.3536 3.64645L9.17157 0.464465C8.97631 0.269203 8.65973 0.269203 8.46447 0.464465C8.2692 0.659728 8.2692 0.97631 8.46447 1.17157L11.2929 4L8.46447 6.82843C8.2692 7.02369 8.2692 7.34027 8.46447 7.53553C8.65973 7.7308 8.97631 7.7308 9.17157 7.53553L12.3536 4.35355ZM4.37114e-08 4.5L12 4.5L12 3.5L-4.37114e-08 3.5L4.37114e-08 4.5Z" fill="#0047BB"/>
<path d="M12.3536 12.3536C12.5488 12.1583 12.5488 11.8417 12.3536 11.6464L9.17157 8.46447C8.97631 8.2692 8.65973 8.2692 8.46447 8.46447C8.2692 8.65973 8.2692 8.97631 8.46447 9.17157L11.2929 12L8.46447 14.8284C8.2692 15.0237 8.2692 15.3403 8.46447 15.5355C8.65973 15.7308 8.97631 15.7308 9.17157 15.5355L12.3536 12.3536ZM4.37114e-08 12.5L12 12.5L12 11.5L-4.37114e-08 11.5L4.37114e-08 12.5Z" fill="#DCDCDC"/>
</svg>
