<svg width="32" height="32" viewBox="0 0 32 32" fill="none" xmlns="http://www.w3.org/2000/svg">
<path d="M5.33325 28.5333V3.46663C5.33325 3.25445 5.41754 3.05097 5.56757 2.90094C5.7176 2.75091 5.92108 2.66663 6.13325 2.66663H21.6693C21.8814 2.66681 22.0847 2.75122 22.2346 2.90129L26.4319 7.09863C26.5065 7.17316 26.5657 7.26171 26.606 7.35919C26.6462 7.45667 26.6668 7.56115 26.6666 7.66663V28.5333C26.6666 28.6384 26.6459 28.7424 26.6057 28.8394C26.5655 28.9365 26.5066 29.0247 26.4323 29.099C26.358 29.1733 26.2698 29.2322 26.1727 29.2724C26.0757 29.3126 25.9716 29.3333 25.8666 29.3333H6.13325C6.02819 29.3333 5.92417 29.3126 5.82711 29.2724C5.73004 29.2322 5.64185 29.1733 5.56757 29.099C5.49328 29.0247 5.43435 28.9365 5.39415 28.8394C5.35394 28.7424 5.33325 28.6384 5.33325 28.5333V28.5333Z" stroke="#0047BB" stroke-width="1.5" stroke-linecap="round" stroke-linejoin="round"/>
<path d="M21.3333 7.19997V3.13864C21.3334 3.04541 21.3612 2.95432 21.4131 2.87685C21.4649 2.79939 21.5386 2.73902 21.6247 2.70336C21.7109 2.66771 21.8057 2.65836 21.8971 2.6765C21.9886 2.69465 22.0726 2.73947 22.1386 2.80531L26.5279 7.19464C26.5944 7.26039 26.6398 7.34447 26.6583 7.43614C26.6768 7.5278 26.6676 7.62291 26.6319 7.70932C26.5961 7.79572 26.5354 7.86952 26.4575 7.92129C26.3796 7.97306 26.2881 8.00045 26.1946 7.99997H22.1333C21.9211 7.99997 21.7176 7.91569 21.5676 7.76566C21.4175 7.61563 21.3333 7.41215 21.3333 7.19997V7.19997Z" fill="#0047BB" stroke="#0047BB" stroke-width="1.5" stroke-linecap="round" stroke-linejoin="round"/>
<path d="M14.1799 13.8866L15.5652 10.9493C15.6027 10.8653 15.6637 10.794 15.7408 10.744C15.8179 10.6939 15.9079 10.6673 15.9999 10.6673C16.0918 10.6673 16.1818 10.6939 16.2589 10.744C16.3361 10.794 16.397 10.8653 16.4345 10.9493L17.8212 13.8866L20.9185 14.3613C21.3159 14.4213 21.4732 14.9333 21.1852 15.2266L18.9452 17.5106L19.4732 20.7386C19.5412 21.1533 19.1265 21.4693 18.7705 21.2733L15.9999 19.7493L13.2292 21.2733C12.8732 21.4693 12.4585 21.1533 12.5265 20.74L13.0545 17.5106L10.8145 15.2266C10.5252 14.9333 10.6839 14.4213 11.0812 14.36L14.1799 13.8866V13.8866Z" stroke="#0047BB" stroke-width="1.5" stroke-linecap="round" stroke-linejoin="round"/>
</svg>
